<svg xmlns="http://www.w3.org/2000/svg" xmlns:xlink="http://www.w3.org/1999/xlink" version="1.1" id="Livello_1" x="0px" y="0px" width="70px" height="70px" viewBox="4.5 -9.0 90.0 121.5" enable-background="new 50 80 90 90" xml:space="preserve">
<g>
	<g>
		<path fill="#33A6B2" d="M72.35,1.646L60.736,16.182l2.584,1.129c-0.044,0.093-0.083,0.177-0.129,0.273c-0.492,1.049-1.092,2.324-1.777,3.785    c-0.655,1.48-1.54,3.071-2.465,4.831C58,27.946,57.055,29.889,55.9,31.854c-1.16,1.963-2.383,4.033-3.648,6.175    c-1.359,2.085-2.764,4.24-4.192,6.429c-1.485,2.15-3.065,4.287-4.61,6.453c-1.652,2.08-3.256,4.206-4.938,6.213    c-1.717,1.976-3.339,3.987-5.073,5.783c-0.853,0.914-1.689,1.812-2.509,2.692c-0.851,0.847-1.686,1.678-2.496,2.486    c-0.801,0.819-1.612,1.584-2.411,2.309c-0.794,0.729-1.56,1.435-2.296,2.111c-1.519,1.303-2.892,2.523-4.175,3.521    c-1.256,1.036-2.403,1.87-3.336,2.575c-0.953,0.676-1.7,1.214-2.228,1.551c-0.525,0.34-0.807,0.521-0.807,0.521    s0.289-0.168,0.831-0.482c0.543-0.313,1.315-0.814,2.301-1.447c0.966-0.66,2.157-1.443,3.463-2.422    c1.337-0.939,2.77-2.098,4.357-3.334c0.771-0.646,1.576-1.317,2.407-2.013c0.838-0.689,1.689-1.421,2.533-2.205    c0.854-0.775,1.733-1.57,2.631-2.385c0.866-0.846,1.752-1.711,2.653-2.59c1.833-1.73,3.563-3.677,5.393-5.59    c1.791-1.946,3.511-4.015,5.284-6.042c1.663-2.113,3.366-4.2,4.973-6.307c1.552-2.15,3.078-4.267,4.557-6.316    c1.386-2.113,2.728-4.154,3.998-6.091c1.268-1.942,2.318-3.865,3.369-5.594c1.025-1.745,2.002-3.327,2.738-4.797    c0.77-1.454,1.439-2.722,1.992-3.765c0.079-0.149,0.15-0.283,0.223-0.423l2.677,1.17L72.35,1.646z"/>
	</g>
</g>
<rect x="14.321" y="83.989" width="5.262" height="4.437" fill="#33A6B2"/>
<rect x="23.009" y="78.419" width="5.262" height="10.007" fill="#33A6B2"/>
<rect x="31.696" y="71.1" width="5.261" height="17.326" fill="#33A6B2"/>
<rect x="40.384" y="64.334" width="5.262" height="24.092" fill="#33A6B2"/>
<rect x="49.072" y="54.873" width="5.259" height="33.553" fill="#33A6B2"/>
<rect x="57.76" y="44.381" width="5.26" height="44.045" fill="#33A6B2"/>
<rect x="66.446" y="30.021" width="5.26" height="58.405" fill="#33A6B2"/>
</svg>