<svg xmlns="http://www.w3.org/2000/svg" xmlns:xlink="http://www.w3.org/1999/xlink" version="1.1" id="Layer_1" x="0px" y="0px" width="70px" height="70px" viewBox="2.5 -5.0 50.0 67.5" enable-background="new 0 0 50 50" xml:space="preserve">
<g>
	<path fill-rule="evenodd" clip-rule="evenodd" fill="#33A6B2" d="M4.012,21.279c0,6.253,0,12.509,0,18.757   c-0.105,2.098,1.324,3.178,4.257,3.248c10.618-6.322,20.852,11.945,33.147,0.523c3.427-2.268,5.38-8.277,4.261-22.529   c-0.941-3.49-5.31-4.996-13.026-4.506c3.666-8.102,2.059-10.928-0.313-12.99c-4.89-2.27-7.164-1.855-6.778,1.256   c-3.109,6.254-6.775,13.309-14.182,15.229C9.109,20.685,6.278,20.861,4.012,21.279L4.012,21.279z M6.038,23.515   c1.851-0.352,5.097-0.838,6.947-1.188c4.437-1.223,8.769-6.6,11.321-10.059c0.764-1.607,2.44-3.391,3.21-5.029   c-0.524-2.691,0.559-4.543,4.992-1.117c1.364,2.059,0.174,5.939-2.864,12.783c6.358-0.418,12.995-0.037,13.763,2.934   c0.908,12.05-0.489,17.812-3.283,19.734c-8.101,12.086-22.318-7.16-31.927-0.283c-2.404-0.066-2.233-1.535-2.159-3.281   C6.038,32.704,6.038,28.825,6.038,23.515z"/>
</g>
</svg>