<svg xmlns="http://www.w3.org/2000/svg" xmlns:xlink="http://www.w3.org/1999/xlink" version="1.1" id="Layer_1" x="0px" y="0px" width="30.0px" height="30px" viewBox="20.0 -40.0 400.0 540.0" enable-background="new 0 0 400 400" xml:space="preserve">
<g>
	<path fill="#fff" d="M311.748,342H88.252C45.104,342,10,306.896,10,263.748V136.252C10,93.104,45.104,58,88.252,58h223.496   C354.896,58,390,93.104,390,136.252v127.496C390,306.896,354.896,342,311.748,342z M88.252,78C56.132,78,30,104.132,30,136.252   v127.496C30,295.868,56.132,322,88.252,322h223.496c32.12,0,58.252-26.132,58.252-58.252V136.252   C370,104.132,343.868,78,311.748,78H88.252z"/>
</g>
<g>
	<path fill="#fff" d="M156,269.794V137.742l129.151,66.025L156,269.794z M176,170.429v66.678l65.214-33.339L176,170.429z"/>
</g>
</svg>